<?xml version="1.0" encoding="UTF-8" standalone="no"?>
<svg
   xmlns:dc="http://purl.org/dc/elements/1.1/"
   xmlns:cc="http://creativecommons.org/ns#"
   xmlns:rdf="http://www.w3.org/1999/02/22-rdf-syntax-ns#"
   xmlns:svg="http://www.w3.org/2000/svg"
   xmlns="http://www.w3.org/2000/svg"
   xmlns:sodipodi="http://sodipodi.sourceforge.net/DTD/sodipodi-0.dtd"
   xmlns:inkscape="http://www.inkscape.org/namespaces/inkscape"
   width="48"
   height="48"
   version="1"
   id="svg44"
   sodipodi:docname="azpainter papyrus.svg"
   inkscape:version="0.92.5 (2060ec1f9f, 2020-04-08)">
  <metadata
     id="metadata50">
    <rdf:RDF>
      <cc:Work
         rdf:about="">
        <dc:format>image/svg+xml</dc:format>
        <dc:type
           rdf:resource="http://purl.org/dc/dcmitype/StillImage" />
      </cc:Work>
    </rdf:RDF>
  </metadata>
  <defs
     id="defs48" />
  <sodipodi:namedview
     pagecolor="#ffffff"
     bordercolor="#666666"
     borderopacity="1"
     objecttolerance="10"
     gridtolerance="10"
     guidetolerance="10"
     inkscape:pageopacity="0"
     inkscape:pageshadow="2"
     inkscape:window-width="1366"
     inkscape:window-height="743"
     id="namedview46"
     showgrid="false"
     inkscape:zoom="4.9166667"
     inkscape:cx="-6.7118644"
     inkscape:cy="24"
     inkscape:window-x="0"
     inkscape:window-y="25"
     inkscape:window-maximized="1"
     inkscape:current-layer="svg44" />
  <g
     id="g73"
     transform="matrix(1.1041753,0,0,1.1041753,-2.5002072,-3.0522949)">
    <rect
       id="rect2"
       ry="2"
       rx="2"
       y="5"
       x="4"
       height="40"
       width="40"
       style="opacity:0.2" />
    <rect
       id="rect4"
       ry="2"
       rx="2"
       y="4"
       x="4"
       height="40"
       width="40"
       style="fill:#f58a10" />
    <path
       id="path6"
       d="M 8,8 V 40 H 40 V 8 Z"
       style="fill:#f2f1c7"
       inkscape:connector-curvature="0" />
    <path
       id="path8"
       d="M 10.659,16.048674 C 29.48544,14.76791 41.000898,21.847927 30.584531,39.846824 31.288138,37.441396 30.921532,31.868532 27.147312,25.048466 24.228905,19.774869 10.659,16.048674 10.659,16.048674 Z"
       style="opacity:0.1;fill-rule:evenodd;stroke:#000000;stroke-width:0;stroke-linecap:round;stroke-linejoin:round"
       inkscape:connector-curvature="0" />
    <path
       id="path10"
       d="M 6,4 C 4.892,4 4,4.892 4,6 V 7 C 4,5.892 4.892,5 6,5 h 36 c 1.108,0 2,0.892 2,2 V 6 C 44,4.892 43.108,4 42,4 Z"
       style="opacity:0.2;fill:#ffffff"
       inkscape:connector-curvature="0" />
    <path
       id="path12"
       d="M 10.659,15.048674 C 29.48544,13.76791 41.000898,20.847927 30.584531,38.846824 31.288138,36.441396 30.921532,30.868532 27.147312,24.048466 24.228905,18.774869 10.659,15.048674 10.659,15.048674 Z"
       style="fill:#1595ff;fill-rule:evenodd;stroke:#000000;stroke-width:0;stroke-linecap:round;stroke-linejoin:round"
       inkscape:connector-curvature="0" />
    <path
       id="path14"
       d="m 11.683547,12.85358 c 18.362046,-1.723869 29.442307,6.190494 18.950539,26.865102 0.731568,-2.753401 0.481603,-9.104536 -3.063493,-16.83058 C 24.829355,16.91396 11.683547,12.85358 11.683547,12.85358 Z"
       style="opacity:0.1;fill-rule:evenodd;stroke:#000000;stroke-width:0;stroke-linecap:round;stroke-linejoin:round"
       inkscape:connector-curvature="0" />
    <path
       id="path16"
       d="m 11.683547,11.85358 c 18.362046,-1.723869 29.442307,6.190494 18.950539,26.865102 0.731568,-2.753401 0.481603,-9.104536 -3.063493,-16.83058 C 24.829355,15.91396 11.683547,11.85358 11.683547,11.85358 Z"
       style="fill:#38b7ff;fill-rule:evenodd;stroke:#000000;stroke-width:0;stroke-linecap:round;stroke-linejoin:round"
       inkscape:connector-curvature="0" />
    <path
       id="path18"
       d="M 14.691694,9.9999989 C 35.448813,12.104854 46.238543,22.074335 30.561562,40 31.908968,37.475671 32.862074,31.254131 30.416731,23.018615 28.525876,16.650524 14.691694,9.9999989 14.691694,9.9999989 Z"
       style="opacity:0.1;fill-rule:evenodd;stroke:#000000;stroke-width:0;stroke-linecap:round;stroke-linejoin:round"
       inkscape:connector-curvature="0" />
    <path
       id="path20"
       d="M 14.691694,8.9999992 C 35.448813,11.104854 46.238543,21.074335 30.561562,39 31.908968,36.475671 32.862074,30.254131 30.416731,22.018615 28.525876,15.650524 14.691694,8.9999992 14.691694,8.9999992 Z"
       style="fill:#6be3ff;fill-rule:evenodd;stroke:#000000;stroke-width:0;stroke-linecap:round;stroke-linejoin:round"
       inkscape:connector-curvature="0" />
    <circle
       id="circle22"
       r="1.5"
       cy="29.5"
       cx="34.5"
       style="opacity:0.2;stroke:#6a4326;stroke-width:0;stroke-linecap:round;stroke-linejoin:round" />
    <circle
       id="circle24"
       r="1.5"
       cy="28.5"
       cx="34.5"
       style="fill:#ffffff;stroke:#6a4326;stroke-width:0;stroke-linecap:round;stroke-linejoin:round" />
    <circle
       id="circle26"
       r="1"
       cy="34"
       cx="32"
       style="opacity:0.2;stroke:#6a4326;stroke-width:0;stroke-linecap:round;stroke-linejoin:round" />
    <circle
       id="circle28"
       r="1"
       cy="33"
       cx="32"
       style="fill:#ffffff;stroke:#6a4326;stroke-width:0;stroke-linecap:round;stroke-linejoin:round" />
    <rect
       id="rect30"
       transform="matrix(0.83219764,0.55447911,-0.55908617,0.82910956,0,0)"
       ry="0"
       y="-9.3100004"
       x="35.57"
       height="14.442"
       width="3.836"
       style="opacity:0.1" />
    <rect
       id="rect32"
       transform="matrix(0.83219764,0.55447911,-0.55908617,0.82910956,0,0)"
       ry="0"
       y="-10.15"
       x="35.009998"
       height="14.442"
       width="3.836"
       style="fill:#ffc60a" />
    <rect
       id="rect34"
       transform="matrix(0.83260805,0.55386264,-0.55813368,0.82975104,0,0)"
       y="6.9000001"
       x="35.110001"
       height="3.7520001"
       width="4.5089998"
       style="opacity:0.1" />
    <rect
       id="rect36"
       transform="matrix(0.83260805,0.55386264,-0.55813368,0.82975104,0,0)"
       y="6.0700002"
       x="34.549999"
       height="3.7520001"
       width="4.5089998"
       style="fill:#835d1a" />
    <path
       id="path38"
       d="m 21.974166,29.435018 c -4.713797,3.962063 -9.831634,2.949536 -9.831634,2.949536 L 9,31.944325 c 0,0 1.671794,2.907452 3.681251,4.666429 2.558919,2.239948 6.3334,3.8729 10.100995,0.30816 3.322112,-3.14324 3.501679,-4.578382 3.501679,-4.578382 z"
       style="opacity:0.1;fill-rule:evenodd"
       inkscape:connector-curvature="0" />
    <path
       id="path40"
       d="m 21.974166,28.435018 c -4.713797,3.962063 -9.831634,2.949536 -9.831634,2.949536 L 9,30.944325 c 0,0 1.671794,2.907452 3.681251,4.666429 2.558919,2.239948 6.3334,3.8729 10.100995,0.30816 3.322112,-3.14324 3.501679,-4.578382 3.501679,-4.578382 z"
       style="fill:#1dadff;fill-rule:evenodd"
       inkscape:connector-curvature="0" />
    <rect
       id="rect42"
       y="40"
       x="8"
       height="1"
       width="32"
       style="opacity:0.2" />
  </g>
</svg>
